<svg version="1.1" id="Layer_1" xmlns="http://www.w3.org/2000/svg" xmlns:xlink="http://www.w3.org/1999/xlink" x="0px" y="0px"
	 width="100%" viewBox="0 0 469 532" enable-background="new 0 0 469 532" xml:space="preserve">
<path fill="none" opacity="1.000000" stroke="none" 
	d="
M184.000000,533.000000 
	C122.666679,533.000000 61.833363,533.000000 1.000033,533.000000 
	C1.000022,355.666718 1.000022,178.333450 1.000011,1.000128 
	C157.333237,1.000085 313.666473,1.000085 469.999817,1.000043 
	C469.999878,178.333191 469.999878,355.666382 469.999939,532.999756 
	C374.833344,533.000000 279.666656,533.000000 184.000000,533.000000 
M213.614243,362.878723 
	C220.920593,369.815399 228.226944,376.752075 236.237854,384.357666 
	C238.295914,381.956970 239.864517,379.766876 241.783676,377.946350 
	C255.308762,365.115967 268.320282,351.656464 282.634033,339.768341 
	C299.120361,326.075897 316.815277,313.842682 333.864197,300.817200 
	C335.453857,299.602692 337.097473,297.272552 337.144836,295.420227 
	C337.430115,284.268005 337.392792,273.100616 337.111359,261.947174 
	C337.060791,259.941528 335.873138,257.310760 334.324768,256.145813 
	C331.835510,254.272980 332.087341,252.489792 332.808899,250.112381 
	C336.074677,239.352280 337.435974,228.375519 337.284149,217.096207 
	C337.015137,197.111542 337.191620,177.120941 337.159576,157.132874 
	C337.157043,155.545410 336.983124,153.958206 336.842896,151.597275 
	C333.991821,153.585526 331.756317,154.992523 329.686584,156.611435 
	C309.621796,172.305710 289.634705,188.100159 269.467621,203.661484 
	C267.300690,205.333511 264.144958,206.514404 261.427704,206.554504 
	C243.941727,206.812485 226.449509,206.758804 208.961197,206.601105 
	C206.822861,206.581818 204.287704,205.860580 202.625244,204.574371 
	C182.219543,188.786865 161.947327,172.826874 141.624893,156.931549 
	C139.354904,155.156067 136.988571,153.503769 134.086105,151.366699 
	C133.945511,153.652100 133.798447,154.949554 133.795975,156.247253 
	C133.761490,174.403259 133.939972,192.562241 133.663727,210.714371 
	C133.456985,224.300201 134.364105,237.685074 138.560364,250.680328 
	C139.355240,253.141937 138.713104,254.418121 136.833969,256.155121 
	C135.256592,257.613190 134.001831,260.233612 133.939392,262.378296 
	C133.648666,272.363831 134.131210,282.376343 133.695923,292.351257 
	C133.484634,297.192902 135.225494,299.983307 139.129608,302.427002 
	C166.227310,319.388123 190.299957,340.109985 213.614243,362.878723 
z"/>
<path fill="#D7765A" opacity="1.000000" stroke="#D7765A"  
	d="
M213.367096,362.622498 
	C190.299957,340.109985 166.227310,319.388123 139.129608,302.427002 
	C135.225494,299.983307 133.484634,297.192902 133.695923,292.351257 
	C134.131210,282.376343 133.648666,272.363831 133.939392,262.378296 
	C134.001831,260.233612 135.256592,257.613190 136.833969,256.155121 
	C138.713104,254.418121 139.355240,253.141937 138.560364,250.680328 
	C134.364105,237.685074 133.456985,224.300201 133.663727,210.714371 
	C133.939972,192.562241 133.761490,174.403259 133.795975,156.247253 
	C133.798447,154.949554 133.945511,153.652100 134.086105,151.366699 
	C136.988571,153.503769 139.354904,155.156067 141.624893,156.931549 
	C161.947327,172.826874 182.219543,188.786865 202.625244,204.574371 
	C204.287704,205.860580 206.822861,206.581818 208.961197,206.601105 
	C226.449509,206.758804 243.941727,206.812485 261.427704,206.554504 
	C264.144958,206.514404 267.300690,205.333511 269.467621,203.661484 
	C289.634705,188.100159 309.621796,172.305710 329.686584,156.611435 
	C331.756317,154.992523 333.991821,153.585526 336.842896,151.597275 
	C336.983124,153.958206 337.157043,155.545410 337.159576,157.132874 
	C337.191620,177.120941 337.015137,197.111542 337.284149,217.096207 
	C337.435974,228.375519 336.074677,239.352280 332.808899,250.112381 
	C332.087341,252.489792 331.835510,254.272980 334.324768,256.145813 
	C335.873138,257.310760 337.060791,259.941528 337.111359,261.947174 
	C337.392792,273.100616 337.430115,284.268005 337.144836,295.420227 
	C337.097473,297.272552 335.453857,299.602692 333.864197,300.817200 
	C316.815277,313.842682 299.120361,326.075897 282.634033,339.768341 
	C268.320282,351.656464 255.308762,365.115967 241.783676,377.946350 
	C239.864517,379.766876 238.295914,381.956970 236.237854,384.357666 
	C228.226944,376.752075 220.920593,369.815399 213.367096,362.622498 
M196.227570,326.542969 
	C196.688980,326.832672 197.150391,327.122375 196.998825,327.772217 
	C197.201797,327.647644 197.404770,327.523071 197.688522,328.087738 
	C200.454681,330.392029 203.220840,332.696350 206.003830,334.995789 
	C206.003830,334.995789 206.000137,335.012817 206.201859,335.588318 
	C206.832657,336.052155 207.463455,336.515991 208.547745,337.113495 
	C208.839157,337.287445 209.009842,337.542297 209.108368,338.609222 
	C210.465256,339.567413 211.822144,340.525574 213.179031,341.483765 
	C213.143845,339.835114 213.516357,338.028107 212.955414,336.583649 
	C212.426178,335.220795 210.914642,334.239349 209.371552,332.587189 
	C204.521942,323.511200 200.040695,314.213745 194.745346,305.405762 
	C184.029724,287.581970 167.435715,276.938873 148.125992,269.504791 
	C146.708221,276.391602 145.799393,283.263977 149.014328,290.273041 
	C149.014328,290.273041 149.120422,290.649902 149.378815,291.144287 
	C149.640411,291.404907 149.902023,291.665497 150.568741,291.995453 
	C150.568741,291.995453 150.941040,292.169525 151.257217,292.689941 
	C151.971924,292.984619 152.686630,293.279266 153.326614,293.617401 
	C153.326614,293.617401 153.336868,293.531525 153.530334,294.182587 
	C155.389160,295.396454 157.248001,296.610321 159.666016,297.960632 
	C160.117355,298.279694 160.568695,298.598785 161.311935,299.534271 
	C162.082245,299.946411 162.852539,300.358551 163.875748,300.787628 
	C163.875748,300.787628 163.976440,301.020233 164.154221,301.651306 
	C165.135956,302.414734 166.117706,303.178162 167.017868,303.961426 
	C167.017868,303.961426 166.998352,303.879761 167.480484,304.287201 
	C168.070312,304.485229 168.660141,304.683228 169.646957,305.087738 
	C169.836182,305.325836 169.963837,305.593323 170.287735,306.522217 
	C172.616928,307.977478 174.946121,309.432709 177.696167,311.064575 
	C177.919052,311.287720 178.056686,311.554810 178.309143,312.508972 
	C180.369171,313.808746 182.429199,315.108551 184.014587,316.973114 
	C184.172333,316.785828 184.330078,316.598511 184.668488,317.090057 
	C185.607285,317.658752 186.546082,318.227448 187.842911,318.859802 
	C188.079956,318.972595 188.225677,319.157410 188.368805,320.132507 
	C190.378525,321.623199 192.388229,323.113922 194.306732,324.623749 
	C194.306732,324.623749 194.291733,324.531769 194.554382,325.053436 
	C195.025925,325.368835 195.497467,325.684265 196.010468,325.984833 
	C196.010468,325.984833 196.002548,326.028137 196.227570,326.542969 
M321.458069,269.069763 
	C288.429932,281.754425 271.170074,308.488251 258.620697,340.180939 
	C259.975433,339.141968 260.968689,338.421112 261.917908,337.646271 
	C277.362213,325.038574 292.768188,312.383545 308.260956,299.835693 
	C312.885651,296.090027 317.749878,292.640137 323.020905,288.547150 
	C322.747833,282.071960 322.474792,275.596741 321.458069,269.069763 
M166.147583,260.450012 
	C170.885284,263.224518 175.749268,265.806000 180.338348,268.807739 
	C198.138199,280.450775 209.035187,297.655853 218.059814,316.284546 
	C223.856934,328.251038 229.467651,340.307800 235.516174,353.071625 
	C241.392090,340.682404 246.980820,329.016968 252.468033,317.303986 
	C263.376587,294.018707 277.779816,273.895660 301.698242,262.230835 
	C304.437714,260.894806 306.971375,259.136688 309.696564,257.517151 
	C309.070709,256.751648 308.821198,256.290741 308.440613,256.003448 
	C294.090363,245.171066 279.770874,234.296661 265.306183,223.619049 
	C263.728516,222.454437 261.308563,221.976227 259.272736,221.959076 
	C243.451981,221.825714 227.628464,221.791656 211.808975,221.984741 
	C209.514130,222.012726 206.885895,222.921722 205.010437,224.261093 
	C196.614929,230.256744 188.433990,236.552994 180.179718,242.746231 
	C173.817917,247.519516 167.462234,252.300964 160.610825,257.449188 
	C162.665771,258.551636 164.096939,259.319427 166.147583,260.450012 
M282.611237,212.922104 
	C279.654694,214.625565 280.665222,215.926651 282.844910,217.553421 
	C293.383087,225.418594 303.830109,233.405792 314.336792,241.313339 
	C315.594177,242.259659 317.018311,242.984436 318.786163,244.070557 
	C324.847534,223.542435 321.477661,203.283844 322.348175,181.786880 
	C308.459839,192.665253 295.799255,202.581970 282.611237,212.922104 
M148.902954,224.322739 
	C149.835037,230.780182 150.767120,237.237625 151.867584,244.861511 
	C165.714203,234.406555 178.326218,224.883774 191.306915,215.082626 
	C177.014160,203.991196 163.451508,193.466339 148.876587,182.155960 
	C148.876587,196.832077 148.876587,210.096588 148.902954,224.322739 
z"/>
<path fill="none" opacity="1.000000" stroke="none" 
	d="
M165.837830,260.268616 
	C164.096939,259.319427 162.665771,258.551636 160.610825,257.449188 
	C167.462234,252.300964 173.817917,247.519516 180.179718,242.746231 
	C188.433990,236.552994 196.614929,230.256744 205.010437,224.261093 
	C206.885895,222.921722 209.514130,222.012726 211.808975,221.984741 
	C227.628464,221.791656 243.451981,221.825714 259.272736,221.959076 
	C261.308563,221.976227 263.728516,222.454437 265.306183,223.619049 
	C279.770874,234.296661 294.090363,245.171066 308.440613,256.003448 
	C308.821198,256.290741 309.070709,256.751648 309.696564,257.517151 
	C306.971375,259.136688 304.437714,260.894806 301.698242,262.230835 
	C277.779816,273.895660 263.376587,294.018707 252.468033,317.303986 
	C246.980820,329.016968 241.392090,340.682404 235.516174,353.071625 
	C229.467651,340.307800 223.856934,328.251038 218.059814,316.284546 
	C209.035187,297.655853 198.138199,280.450775 180.338348,268.807739 
	C175.749268,265.806000 170.885284,263.224518 165.837830,260.268616 
z"/>
<path fill="none" opacity="1.000000" stroke="none" 
	d="
M282.874939,212.710388 
	C295.799255,202.581970 308.459839,192.665253 322.348175,181.786880 
	C321.477661,203.283844 324.847534,223.542435 318.786163,244.070557 
	C317.018311,242.984436 315.594177,242.259659 314.336792,241.313339 
	C303.830109,233.405792 293.383087,225.418594 282.844910,217.553421 
	C280.665222,215.926651 279.654694,214.625565 282.874939,212.710388 
z"/>
<path fill="none" opacity="1.000000" stroke="none" 
	d="
M148.889771,223.841919 
	C148.876587,210.096588 148.876587,196.832077 148.876587,182.155960 
	C163.451508,193.466339 177.014160,203.991196 191.306915,215.082626 
	C178.326218,224.883774 165.714203,234.406555 151.867584,244.861511 
	C150.767120,237.237625 149.835037,230.780182 148.889771,223.841919 
z"/>
<path fill="none" opacity="1.000000" stroke="none" 
	d="
M322.504364,289.054749 
	C317.749878,292.640137 312.885651,296.090027 308.260956,299.835693 
	C292.768188,312.383545 277.362213,325.038574 261.917908,337.646271 
	C260.968689,338.421112 259.975433,339.141968 258.620697,340.180939 
	C271.170074,308.488251 288.429932,281.754425 321.800354,269.547668 
	C322.263214,276.368622 322.383789,282.711670 322.504364,289.054749 
z"/>
<path fill="none" opacity="1.000000" stroke="none" 
	d="
M149.120422,290.649902 
	C149.120422,290.649902 149.014328,290.273041 148.903015,289.681519 
	C148.768494,282.431274 148.745270,275.772552 148.722046,269.113861 
	C167.435715,276.938873 184.029724,287.581970 194.745346,305.405762 
	C200.040695,314.213745 204.521942,323.511200 209.642426,333.198486 
	C210.303696,334.979218 210.694107,336.148651 211.084518,337.318054 
	C210.409607,337.504700 209.734695,337.691345 209.059784,337.877991 
	C209.009842,337.542297 208.839157,337.287445 208.205734,336.769775 
	C207.242523,335.954987 206.621338,335.483917 206.000137,335.012817 
	C206.000137,335.012817 206.003830,334.995789 205.862228,334.693237 
	C203.016327,332.059967 200.312027,329.729248 197.607727,327.398529 
	C197.404770,327.523071 197.201797,327.647644 197.185394,327.338959 
	C196.915512,326.613159 196.459030,326.320648 196.002548,326.028137 
	C196.002548,326.028137 196.010468,325.984833 195.870758,325.727142 
	C195.251282,325.156891 194.771500,324.844330 194.291733,324.531769 
	C194.291733,324.531769 194.306732,324.623749 194.209595,324.315674 
	C192.168335,322.476501 190.224213,320.945343 188.280106,319.414215 
	C188.225677,319.157410 188.079956,318.972595 187.484100,318.556824 
	C186.246124,317.639648 185.366974,317.025421 184.487808,316.411224 
	C184.330078,316.598511 184.172333,316.785828 184.084869,316.412445 
	C182.139786,314.523132 180.124405,313.194458 178.109039,311.865814 
	C178.056686,311.554810 177.919052,311.287720 177.316864,310.677856 
	C174.635010,308.824188 172.332443,307.357208 170.029892,305.890198 
	C169.963837,305.593323 169.836182,305.325836 169.271317,304.706482 
	C168.263245,304.176727 167.630798,304.028229 166.998352,303.879761 
	C166.998352,303.879761 167.017868,303.961426 166.971466,303.640015 
	C165.942200,302.552490 164.959320,301.786377 163.976440,301.020233 
	C163.976440,301.020233 163.875748,300.787628 163.580200,300.493958 
	C162.529770,299.772827 161.774902,299.345337 161.020035,298.917847 
	C160.568695,298.598785 160.117355,298.279694 159.284851,297.576477 
	C157.048096,295.972076 155.192474,294.751801 153.336868,293.531525 
	C153.336868,293.531525 153.326614,293.617401 153.210098,293.334412 
	C152.376068,292.757446 151.658554,292.463501 150.941040,292.169525 
	C150.941040,292.169525 150.568741,291.995453 150.275589,291.683044 
	C149.695099,291.130371 149.407761,290.890137 149.120422,290.649902 
z"/>
<path fill="#BA715D" opacity="1.000000" stroke="none" 
	d="
M148.424011,269.309326 
	C148.745270,275.772552 148.768494,282.431274 148.750427,289.558899 
	C145.799393,283.263977 146.708221,276.391602 148.424011,269.309326 
z"/>
<path fill="#AC6B57" opacity="1.000000" stroke="none" 
	d="
M322.762634,288.800964 
	C322.383789,282.711670 322.263214,276.368622 322.172180,269.573547 
	C322.474792,275.596741 322.747833,282.071960 322.762634,288.800964 
z"/>
<path fill="#BA715D" opacity="1.000000" stroke="none" 
	d="
M209.084076,338.243591 
	C209.734695,337.691345 210.409607,337.504700 211.084518,337.318054 
	C210.694107,336.148651 210.303696,334.979218 209.874252,333.449982 
	C210.914642,334.239349 212.426178,335.220795 212.955414,336.583649 
	C213.516357,338.028107 213.143845,339.835114 213.179031,341.483765 
	C211.822144,340.525574 210.465256,339.567413 209.084076,338.243591 
z"/>
<path fill="#BA715D" opacity="1.000000" stroke="none" 
	d="
M197.648132,327.743134 
	C200.312027,329.729248 203.016327,332.059967 205.853821,334.695679 
	C203.220840,332.696350 200.454681,330.392029 197.648132,327.743134 
z"/>
<path fill="#BA715D" opacity="1.000000" stroke="none" 
	d="
M153.433594,293.857056 
	C155.192474,294.751801 157.048096,295.972076 159.005280,297.508270 
	C157.248001,296.610321 155.389160,295.396454 153.433594,293.857056 
z"/>
<path fill="#BA715D" opacity="1.000000" stroke="none" 
	d="
M188.324463,319.773376 
	C190.224213,320.945343 192.168335,322.476501 194.255188,324.306122 
	C192.388229,323.113922 190.378525,321.623199 188.324463,319.773376 
z"/>
<path fill="#BA715D" opacity="1.000000" stroke="none" 
	d="
M170.158813,306.206207 
	C172.332443,307.357208 174.635010,308.824188 177.106445,310.589539 
	C174.946121,309.432709 172.616928,307.977478 170.158813,306.206207 
z"/>
<path fill="#BA715D" opacity="1.000000" stroke="none" 
	d="
M178.209091,312.187378 
	C180.124405,313.194458 182.139786,314.523132 184.322205,316.130066 
	C182.429199,315.108551 180.369171,313.808746 178.209091,312.187378 
z"/>
<path fill="#BA715D" opacity="1.000000" stroke="none" 
	d="
M164.065338,301.335754 
	C164.959320,301.786377 165.942200,302.552490 167.012268,303.630096 
	C166.117706,303.178162 165.135956,302.414734 164.065338,301.335754 
z"/>
<path fill="#BA715D" opacity="1.000000" stroke="none" 
	d="
M184.578156,316.750641 
	C185.366974,317.025421 186.246124,317.639648 187.305084,318.525024 
	C186.546082,318.227448 185.607285,317.658752 184.578156,316.750641 
z"/>
<path fill="#BA715D" opacity="1.000000" stroke="none" 
	d="
M161.165985,299.226074 
	C161.774902,299.345337 162.529770,299.772827 163.453751,300.485474 
	C162.852539,300.358551 162.082245,299.946411 161.165985,299.226074 
z"/>
<path fill="#BA715D" opacity="1.000000" stroke="none" 
	d="
M151.099121,292.429749 
	C151.658554,292.463501 152.376068,292.757446 153.247467,293.312683 
	C152.686630,293.279266 151.971924,292.984619 151.099121,292.429749 
z"/>
<path fill="#BA715D" opacity="1.000000" stroke="none" 
	d="
M206.100998,335.300568 
	C206.621338,335.483917 207.242523,335.954987 207.978989,336.702972 
	C207.463455,336.515991 206.832657,336.052155 206.100998,335.300568 
z"/>
<path fill="#BA715D" opacity="1.000000" stroke="none" 
	d="
M167.239410,304.083466 
	C167.630798,304.028229 168.263245,304.176727 169.072815,304.603210 
	C168.660141,304.683228 168.070312,304.485229 167.239410,304.083466 
z"/>
<path fill="#BA715D" opacity="1.000000" stroke="none" 
	d="
M194.423065,324.792603 
	C194.771500,324.844330 195.251282,325.156891 195.850037,325.734558 
	C195.497467,325.684265 195.025925,325.368835 194.423065,324.792603 
z"/>
<path fill="#BA715D" opacity="1.000000" stroke="none" 
	d="
M196.115051,326.285553 
	C196.459030,326.320648 196.915512,326.613159 197.491882,327.158875 
	C197.150391,327.122375 196.688980,326.832672 196.115051,326.285553 
z"/>
<path fill="#BA715D" opacity="1.000000" stroke="none" 
	d="
M149.249619,290.897095 
	C149.407761,290.890137 149.695099,291.130371 150.073029,291.648376 
	C149.902023,291.665497 149.640411,291.404907 149.249619,290.897095 
z"/>
</svg>